<svg width="40" height="40" viewBox="0 0 40 40" fill="none" xmlns="http://www.w3.org/2000/svg">
<path fill-rule="evenodd" clip-rule="evenodd" d="M40 19.9999C40 31.0457 31.0457 40 20 40C8.95426 40 0 31.0457 0 19.9999C0 8.95432 8.95426 0 20 0C31.0457 0 40 8.95432 40 19.9999Z" fill="#FAFAFA"/>
<path fill-rule="evenodd" clip-rule="evenodd" d="M20.0001 27.6191C15.7989 27.6191 12.381 24.2012 12.381 20.0001C12.381 15.7989 15.7989 12.381 20.0001 12.381C24.2012 12.381 27.619 15.7989 27.619 20.0001C27.619 24.2012 24.2012 27.6191 20.0001 27.6191ZM26.4256 21.043C26.2029 20.9727 24.4112 20.4383 22.3719 20.7648C23.2231 23.1039 23.5695 25.0089 23.6362 25.4048C25.0962 24.4176 26.1355 22.8538 26.4256 21.043ZM22.5421 26.0006C22.4453 25.4297 22.0675 23.4397 21.1538 21.0655C21.1395 21.0704 21.1252 21.075 21.1109 21.08C17.4402 22.3591 16.1226 24.9046 16.0054 25.144C17.1089 26.0045 18.4956 26.5178 20.0001 26.5178C20.9015 26.5178 21.7608 26.3334 22.5421 26.0006ZM15.1652 24.3613C15.3126 24.109 17.0987 21.1517 20.455 20.0668C20.5398 20.0394 20.6253 20.0136 20.7115 19.9894C20.5481 19.6197 20.3702 19.2495 20.1838 18.885C16.9339 19.8576 13.7802 19.8169 13.4955 19.8111C13.4935 19.8772 13.4922 19.9434 13.4922 20.01C13.4922 21.6814 14.1258 23.2076 15.1652 24.3613ZM13.6297 18.6771C13.9207 18.6809 16.6019 18.6926 19.6461 17.8842C18.5678 15.9673 17.4048 14.3558 17.2333 14.1205C15.4126 14.9792 14.0516 16.6576 13.6297 18.6771ZM18.475 13.683C18.6549 13.9239 19.8369 15.5335 20.9032 17.4928C23.2174 16.6255 24.197 15.3087 24.3141 15.142C23.1648 14.1224 21.6536 13.5021 20.0001 13.5021C19.4749 13.5021 18.9643 13.5651 18.475 13.683ZM25.0375 15.8945C24.9003 16.0801 23.8098 17.4781 21.4036 18.4605C21.555 18.7705 21.7002 19.0858 21.8354 19.4032C21.8832 19.5157 21.9299 19.6276 21.9755 19.739C24.141 19.4667 26.2925 19.9031 26.5071 19.9485C26.4928 18.4124 25.9439 17.002 25.0375 15.8945Z" fill="black" fill-opacity="0.38"/>
</svg>
