<svg width="48" height="48" viewBox="0 0 48 48" fill="none" xmlns="http://www.w3.org/2000/svg"><g filter="url(#filter0_d)"><path fill-rule="evenodd" clip-rule="evenodd" d="M24 40C35.0457 40 44 31.0457 44 20C44 8.9543 35.0457 0 24 0C12.9543 0 4 8.9543 4 20C4 31.0457 12.9543 40 24 40Z" fill="#CD9F85"/><path fill-rule="evenodd" clip-rule="evenodd" d="M26.5449 15.523C26.2326 15.4242 25.8735 15.3584 25.5457 15.3584C25.1397 15.3584 24.2654 15.6383 24.2654 16.1816V17.4822H26.3419V19.672H24.2654V25.7143H22.1733V19.672H21.1429V17.4822H22.1733V16.3792C22.1733 14.7163 22.8915 13.3333 24.6245 13.3333C25.2178 13.3333 26.2795 13.3662 26.8571 13.5803L26.5449 15.523Z" fill="black"/></g><defs><filter id="filter0_d" x="0" y="0" width="48" height="48" filterUnits="userSpaceOnUse" color-interpolation-filters="sRGB"><feFlood flood-opacity="0" result="BackgroundImageFix"/><feColorMatrix in="SourceAlpha" type="matrix" values="0 0 0 0 0 0 0 0 0 0 0 0 0 0 0 0 0 0 127 0" result="hardAlpha"/><feOffset dy="4"/><feGaussianBlur stdDeviation="2"/><feColorMatrix type="matrix" values="0 0 0 0 0 0 0 0 0 0 0 0 0 0 0 0 0 0 0.25 0"/><feBlend mode="normal" in2="BackgroundImageFix" result="effect1_dropShadow"/><feBlend mode="normal" in="SourceGraphic" in2="effect1_dropShadow" result="shape"/></filter></defs></svg>
