<svg width="40" height="40" viewBox="0 0 40 40" fill="none" xmlns="http://www.w3.org/2000/svg">
<path fill-rule="evenodd" clip-rule="evenodd" d="M40 19.9999C40 31.0457 31.0457 40 20 40C8.95426 40 0 31.0457 0 19.9999C0 8.95432 8.95426 0 20 0C31.0457 0 40 8.95432 40 19.9999Z" fill="#FAFAFA"/>
<path fill-rule="evenodd" clip-rule="evenodd" d="M24.0048 25.7143V20.927C24.0048 20.019 23.7571 19.0492 22.6635 19.0492C22.0444 19.0492 21.5079 19.4825 21.3016 20.0603C21.219 20.2873 21.219 20.5143 21.219 20.7412V25.7143H18.5778C18.5778 22.8254 18.5984 19.9571 18.5159 17.0682H20.8063L20.9302 18.2857H20.9714C21.5286 17.3778 22.5603 16.8825 23.6127 16.8825C25.8 16.8825 26.6667 18.6365 26.6667 20.6174V25.7143H24.0048ZM14.3476 25.7143V17.0682H16.9889V25.7143H14.3476ZM15.6889 13.3333C16.473 13.3333 17.0714 13.8698 17.0714 14.6746C17.0714 15.5 16.4524 16.0159 15.6476 16.0159C14.8635 16.0159 14.2857 15.4587 14.2857 14.6746C14.2857 13.8698 14.9048 13.3333 15.6889 13.3333Z" fill="black" fill-opacity="0.38"/>
</svg>
