<svg width="40" height="40" viewBox="0 0 40 40" fill="none" xmlns="http://www.w3.org/2000/svg">
<path fill-rule="evenodd" clip-rule="evenodd" d="M20 40C31.0457 40 40 31.0457 40 20C40 8.9543 31.0457 0 20 0C8.9543 0 0 8.9543 0 20C0 31.0457 8.9543 40 20 40Z" fill="#FAFAFA"/>
<path fill-rule="evenodd" clip-rule="evenodd" d="M23.1796 17.5306C22.6922 17.052 22.1072 16.8605 21.5223 16.9563C22.1072 16.8605 22.3997 16.6691 22.4972 16.5734C22.4972 16.4777 22.4972 16.3819 22.3997 16.3819C22.1072 16.3819 21.8148 16.4777 21.6198 16.5734C21.9123 16.3819 22.0098 16.2862 22.0098 16.1905C21.7173 16.1905 21.4248 16.3819 21.0349 16.6691C21.1324 16.4777 21.2299 16.3819 21.1324 16.2862C20.9374 16.3819 20.8399 16.4777 20.7424 16.6691C20.45 16.9563 20.255 17.1477 20.1575 17.4349C19.7675 18.1049 19.4751 18.6792 19.2801 19.3493H19.1826C18.9876 19.0621 18.6952 18.7749 18.3052 18.5835C17.9153 18.2963 17.4278 18.1049 16.8429 17.8177C16.258 17.5306 15.6731 17.2434 14.9906 17.052C14.9906 17.722 15.2831 18.2963 15.9655 18.6792C15.7705 18.6792 15.4781 18.6792 15.2831 18.7749C15.2831 19.3493 15.7705 19.8279 16.6479 20.0193C16.3555 20.0193 16.063 20.115 15.7705 20.3065C16.063 20.8808 16.5504 21.0722 17.3303 21.0722C17.2329 21.168 17.0379 21.2637 17.0379 21.2637C16.9404 21.3594 16.8429 21.5508 16.9404 21.7423C17.1354 22.0294 17.3303 22.1252 17.8178 22.1252C17.1354 22.7952 16.258 23.1781 15.2831 23.0824C14.6982 23.0824 14.0158 22.7952 13.3333 22.2209C14.0158 23.1781 14.9906 23.9439 16.1605 24.4225C17.5253 24.8053 18.8901 24.9011 20.1575 24.5182C21.4248 24.1353 22.5947 23.3695 23.4721 22.3166C23.862 21.7423 24.1545 21.168 24.252 20.5936C24.9344 20.5936 25.4218 20.4022 25.7143 20.0193C25.5193 20.115 25.0319 20.115 24.3495 19.9236C25.0319 19.8279 25.5193 19.6364 25.6168 19.2535C25.1294 19.445 24.6419 19.445 24.1545 19.2535C24.057 18.5835 23.7645 18.0092 23.1796 17.5306Z" fill="black" fill-opacity="0.38"/>
</svg>
