<svg width="40" height="40" viewBox="0 0 40 40" fill="none" xmlns="http://www.w3.org/2000/svg">
<path opacity="0.5" fill-rule="evenodd" clip-rule="evenodd" d="M40 19.9999C40 31.0457 31.0457 40 20 40C8.95426 40 0 31.0457 0 19.9999C0 8.95432 8.95426 0 20 0C31.0457 0 40 8.95432 40 19.9999Z" fill="#FAFAFA"/>
<path fill-rule="evenodd" clip-rule="evenodd" d="M20.0001 28C15.5888 28 12 24.4112 12 20C12 15.5888 15.5888 12 20.0001 12C24.4112 12 28 15.5888 28 20C28 24.4112 24.4112 28 20.0001 28ZM26.7468 21.0951C26.5131 21.0213 24.6318 20.4602 22.4905 20.803C23.3843 23.259 23.748 25.2593 23.818 25.675C25.351 24.6384 26.4423 22.9964 26.7468 21.0951ZM22.6692 26.3006C22.5676 25.7011 22.1709 23.6117 21.2115 21.1187C21.1965 21.1239 21.1815 21.1287 21.1664 21.1339C17.3122 22.477 15.9287 25.1498 15.8057 25.4012C16.9643 26.3047 18.4204 26.8437 20.0001 26.8437C20.9466 26.8437 21.8488 26.6501 22.6692 26.3006ZM14.9235 24.5793C15.0782 24.3144 16.9536 21.2092 20.4778 20.0701C20.5668 20.0413 20.6566 20.0143 20.7471 19.9888C20.5755 19.6006 20.3887 19.212 20.193 18.8292C16.7806 19.8505 13.4692 19.8078 13.1703 19.8017C13.1682 19.871 13.1668 19.9405 13.1668 20.0104C13.1668 21.7655 13.8321 23.3679 14.9235 24.5793ZM13.3112 18.6109C13.6168 18.6149 16.432 18.6272 19.6284 17.7784C18.4961 15.7657 17.275 14.0735 17.0949 13.8265C15.1832 14.7282 13.7542 16.4905 13.3112 18.6109ZM18.3987 13.3672C18.5876 13.62 19.8287 15.3101 20.9484 17.3674C23.3782 16.4567 24.4069 15.0741 24.5298 14.8991C23.323 13.8285 21.7362 13.1772 20.0001 13.1772C19.4487 13.1772 18.9126 13.2433 18.3987 13.3672ZM25.2894 15.6892C25.1453 15.8841 24.0003 17.352 21.4738 18.3835C21.6328 18.709 21.7852 19.0401 21.9271 19.3733C21.9774 19.4914 22.0264 19.6089 22.0743 19.726C24.348 19.44 26.6071 19.8982 26.8324 19.9459C26.8174 18.333 26.2411 16.852 25.2894 15.6892Z" fill="white" fill-opacity="0.6"/>
</svg>
