<svg width="40" height="40" viewBox="0 0 40 40" fill="none" xmlns="http://www.w3.org/2000/svg">
<path opacity="0.5" fill-rule="evenodd" clip-rule="evenodd" d="M20 40C31.0457 40 40 31.0457 40 20C40 8.9543 31.0457 0 20 0C8.9543 0 0 8.9543 0 20C0 31.0457 8.9543 40 20 40Z" fill="#FAFAFA"/>
<path fill-rule="evenodd" clip-rule="evenodd" d="M22.9811 14.8298C22.5776 14.7021 22.1135 14.617 21.6898 14.617C21.1652 14.617 20.0353 14.9787 20.0353 15.6809V17.3617H22.7188V20.1915H20.0353V28H17.3317V20.1915H16V17.3617H17.3317V15.9362C17.3317 13.7872 18.2598 12 20.4994 12C21.2661 12 22.6381 12.0426 23.3846 12.3191L22.9811 14.8298Z" fill="white" fill-opacity="0.6"/>
</svg>
