<svg width="48" height="48" fill="none" xmlns="http://www.w3.org/2000/svg"><path fill-rule="evenodd" clip-rule="evenodd" d="M7.093 30.393c-3.38-8.602 3.969-17.515 5.44-19 1.472-1.483 4.05-3.707 10.34-3.67 6.29.036 11.592 1.568 15.855 6.604 4.262 5.036 2.027 11.422-2.394 17.729-4.42 6.307-8.459 8.907-11.6 10.575-3.142 1.668-6.25 1.588-8.69.128-2.44-1.46-5.571-3.764-8.951-12.366z" fill="#007AFF"/><path fill-rule="evenodd" clip-rule="evenodd" d="M3.02 22.88c.153-8.77 2.935-14.205 6.327-17.07 3.391-2.865 9.502-2.305 15.748 1.46 6.246 3.764 11.047 11.071 12.43 16.944 1.382 5.873-3.513 9.808-10.251 12.98-6.739 3.172-11.576 3.819-14.917 3.76-3.34-.058-5.224-1.568-6.67-3.786-1.447-2.218-2.82-5.517-2.667-14.287z" fill="#A63090"/><path fill-rule="evenodd" clip-rule="evenodd" d="M18.203 39.392c-7.765-1.65-11.83-3.202-13.79-6.71-1.96-3.51-.842-8.769 3.581-13.669S19.892 9.174 25.348 8.96C30.804 8.745 33.346 14.464 35 21c1.654 6.536 1.502 10.257.873 13.215-.63 2.958-2.736 4.915-4.956 5.818-2.221.902-4.95 1.009-12.714-.641z" fill="#EA435E"/><path fill-rule="evenodd" clip-rule="evenodd" d="M6.053 23.235c0-8.79.747-13.551 4.108-16.481 3.36-2.93 9.336-2.93 15.684.732 6.348 3.663 13.443 10.621 14.937 16.481 1.494 5.86-3.361 9.889-10.083 13.185-6.721 3.296-11.576 4.029-14.937 4.029-3.36 0-5.975-1.832-7.468-4.03-1.494-2.197-2.24-5.126-2.24-13.916z" fill="#7721FF"/><path fill-rule="evenodd" clip-rule="evenodd" d="M35.099 16.197a1.099 1.099 0 100-2.197 1.099 1.099 0 000 2.197z" fill="#A63090"/><path fill-rule="evenodd" clip-rule="evenodd" d="M12.32 19.572a1.099 1.099 0 100-2.197 1.099 1.099 0 000 2.197z" fill="#EA435E"/><path fill-rule="evenodd" clip-rule="evenodd" d="M11.954 37.518a1.099 1.099 0 100-2.197 1.099 1.099 0 000 2.197z" fill="#007AFF"/><path fill-rule="evenodd" clip-rule="evenodd" d="M32.097 28.728a.732.732 0 100-1.464.732.732 0 000 1.464z" fill="#EA435E"/><path fill-rule="evenodd" clip-rule="evenodd" d="M21.11 8.585a.733.733 0 100-1.465.733.733 0 000 1.465z" fill="#A63090"/><path d="M20.153 13c-.425 0-.77.34-.77.76 0 3.847-5.383 6.847-5.383 12.171 0 4.045 4.433 6.66 5.994 6.83a.765.765 0 00.928-.744.758.758 0 00-.284-.59c-.7-.563-2.023-2.192-2.023-3.679 0-2.44 2.307-3.338 2.307-3.338-1.316 3.681 2.996 4.126 3.863 7.771a.77.77 0 001.243.42c.125-.081 3.354-2.194 3.354-6.67 0-1.828-.924-4.967-1.59-6.357v-.005l-.002-.002a.77.77 0 00-.715-.482.767.767 0 00-.756.623c-.002.011-.355 1.563-1.552 2.42 0-3.584-2.616-7.286-3.995-8.818a.773.773 0 00-.619-.31z" fill="#fff"/></svg>