<svg width="18" height="18" fill="none" xmlns="http://www.w3.org/2000/svg"><path fill-rule="evenodd" clip-rule="evenodd" d="M0 0h18v18H0V0zm14.05 6.857v-.343a5.789 5.789 0 001.202-1.287c-.514.258-.943.343-1.457.429.514-.342.943-.771 1.114-1.371-.429.257-.943.514-1.543.6-.429-.514-1.114-.771-1.8-.771A2.488 2.488 0 009.08 6.6c0 .142.026.257.05.361.019.085.036.162.036.239-2.057-.085-3.857-1.114-5.057-2.571-.257.343-.343.771-.343 1.2 0 .857.428 1.543 1.114 2.143-.428-.086-.771-.172-1.114-.343 0 1.2.857 2.143 1.971 2.4-.257.086-.429.086-.686.086-.036 0-.086-.015-.145-.032a1.027 1.027 0 00-.284-.054c.343.943 1.2 1.714 2.314 1.714-.857.6-1.972 1.029-3.086 1.029h-.6c1.114.685 2.4 1.114 3.771 1.114 4.543 0 7.029-3.772 7.029-7.029z" fill="#03DAC4"/></svg>