<svg width="40" height="40" viewBox="0 0 40 40" fill="none" xmlns="http://www.w3.org/2000/svg">
<path opacity="0.5" fill-rule="evenodd" clip-rule="evenodd" d="M40 19.9999C40 31.0457 31.0457 40 20 40C8.95426 40 0 31.0457 0 19.9999C0 8.95432 8.95426 0 20 0C31.0457 0 40 8.95432 40 19.9999Z" fill="#FAFAFA"/>
<path fill-rule="evenodd" clip-rule="evenodd" d="M24.56 28V21.8133C24.56 20.64 24.24 19.3867 22.8267 19.3867C22.0267 19.3867 21.3333 19.9467 21.0667 20.6933C20.96 20.9867 20.96 21.28 20.96 21.5733V28H17.5467C17.5467 24.2667 17.5733 20.56 17.4667 16.8267H20.4267L20.5867 18.4H20.64C21.36 17.2267 22.6933 16.5867 24.0533 16.5867C26.88 16.5867 28 18.8533 28 21.4133V28H24.56ZM12.08 28V16.8267H15.4933V28H12.08ZM13.8133 12C14.8267 12 15.6 12.6933 15.6 13.7333C15.6 14.8 14.8 15.4667 13.76 15.4667C12.7467 15.4667 12 14.7467 12 13.7333C12 12.6933 12.8 12 13.8133 12Z" fill="white" fill-opacity="0.6"/>
</svg>
