<svg width="40" height="40" viewBox="0 0 40 40" fill="none" xmlns="http://www.w3.org/2000/svg">
<path opacity="0.5" fill-rule="evenodd" clip-rule="evenodd" d="M20 40C31.0457 40 40 31.0457 40 20C40 8.9543 31.0457 0 20 0C8.9543 0 0 8.9543 0 20C0 31.0457 8.9543 40 20 40Z" fill="#FAFAFA"/>
<path fill-rule="evenodd" clip-rule="evenodd" d="M26.0822 15.1888C26.0822 15.1888 26.0822 15.0325 26.0822 15.1888C25.2861 14.4071 24.3307 14.0944 23.3753 14.2507C24.3307 14.0944 24.8084 13.7817 24.9676 13.6254C24.9676 13.469 24.9676 13.3127 24.8084 13.3127C24.3307 13.3127 23.853 13.469 23.5346 13.6254C24.0122 13.3127 24.1715 13.1563 24.1715 13C23.6938 13 23.2161 13.3127 22.5792 13.7817C22.7384 13.469 22.8976 13.3127 22.7384 13.1563C22.4199 13.3127 22.2607 13.469 22.1015 13.7817C21.6238 14.2507 21.3053 14.5634 21.1461 15.0325C20.5092 16.1269 20.0315 17.0649 19.713 18.1593H19.5538C19.2353 17.6903 18.7577 17.2213 18.1207 16.9086C17.4838 16.4396 16.6877 16.1269 15.7323 15.6578C14.7769 15.1888 13.8215 14.7198 12.7069 14.4071C12.7069 15.5015 13.1846 16.4396 14.2992 17.0649C13.9808 17.0649 13.5031 17.0649 13.1846 17.2213C13.1846 18.1593 13.9808 18.9411 15.4138 19.2537C14.9361 19.2537 14.4584 19.4101 13.9808 19.7228C14.4584 20.6608 15.2546 20.9735 16.5284 20.9735C16.3692 21.1299 16.0507 21.2862 16.0507 21.2862C15.8915 21.4426 15.7323 21.7552 15.8915 22.0679C16.21 22.537 16.5284 22.6933 17.3246 22.6933C16.21 23.7877 14.7769 24.4131 13.1846 24.2567C12.2292 24.2567 11.1146 23.7877 10 22.8496C11.1146 24.4131 12.7069 25.6638 14.6177 26.4455C16.8469 27.0709 19.0761 27.2273 21.1461 26.6019C23.2161 25.9765 25.1269 24.7258 26.5599 23.006C27.1969 22.0679 27.6745 21.1299 27.8338 20.1918C28.9484 20.1918 29.7445 19.8791 30.2222 19.2537C29.9038 19.4101 29.1076 19.4101 27.993 19.0974C29.1076 18.9411 29.9038 18.6284 30.063 18.003C29.2668 18.3157 28.4707 18.3157 27.6745 18.003C27.5153 16.9086 27.0376 15.9705 26.0822 15.1888Z" fill="#03DAC4"/>
</svg>
