<svg xmlns="http://www.w3.org/2000/svg" width="24" height="19.684" viewBox="0 0 24 19.684"><path fill="#888" d="M24 2.421a9.454 9.454 0 0 1-2.842.737A5.173 5.173 0 0 0 23.369.421a10.286 10.286 0 0 1-3.158 1.158A5.114 5.114 0 0 0 16.632 0a4.942 4.942 0 0 0-4.947 4.947 4.318 4.318 0 0 0 .105 1.158A13.543 13.543 0 0 1 1.474.947a5 5 0 0 0-.632 2.526 4.817 4.817 0 0 0 2.211 4.105 3.892 3.892 0 0 1-2.211-.632v.105a4.872 4.872 0 0 0 4 4.842 5.284 5.284 0 0 1-1.263.211 2.914 2.914 0 0 1-.947-.105 5 5 0 0 0 4.632 3.474 9.549 9.549 0 0 1-6.105 2.105A3.947 3.947 0 0 1 0 17.474a14.492 14.492 0 0 0 7.579 2.211A14 14 0 0 0 21.684 5.579v-.632A10.687 10.687 0 0 0 24 2.421z"/></svg>