<svg width="40" height="40" fill="none" xmlns="http://www.w3.org/2000/svg"><path fill-rule="evenodd" clip-rule="evenodd" d="M40 20c0 11.046-8.954 20-20 20S0 31.046 0 20 8.954 0 20 0s20 8.954 20 20z" fill="#FAFAFA"/><path fill-rule="evenodd" clip-rule="evenodd" d="M20 27.62c-4.201 0-7.619-3.419-7.619-7.62 0-4.201 3.418-7.619 7.62-7.619 4.2 0 7.618 3.418 7.618 7.62 0 4.2-3.418 7.618-7.619 7.618zm6.426-6.577c-.223-.07-2.015-.605-4.054-.278.851 2.339 1.198 4.244 1.264 4.64a6.519 6.519 0 002.79-4.362zm-3.884 4.958c-.097-.571-.475-2.561-1.388-4.936l-.043.015c-3.67 1.28-4.988 3.825-5.106 4.064A6.475 6.475 0 0020 26.518c.901 0 1.76-.185 2.542-.517zm-7.377-1.64c.148-.252 1.934-3.21 5.29-4.294a6.9 6.9 0 01.257-.078c-.164-.37-.342-.74-.528-1.104-3.25.973-6.404.932-6.689.926a6.482 6.482 0 001.67 4.55zm-1.535-5.684c.29.004 2.972.016 6.016-.793a41.531 41.531 0 00-2.413-3.764 6.531 6.531 0 00-3.603 4.557zm4.845-4.994c.18.24 1.362 1.85 2.428 3.81 2.314-.867 3.294-2.184 3.411-2.351a6.481 6.481 0 00-5.839-1.459zm6.563 2.212c-.138.185-1.228 1.583-3.634 2.566a20.126 20.126 0 01.572 1.278c2.165-.272 4.317.164 4.531.21a6.477 6.477 0 00-1.47-4.055z" fill="#000" fill-opacity=".38"/></svg>