<svg width="48" height="48" viewBox="0 0 48 48" fill="none" xmlns="http://www.w3.org/2000/svg"><g clip-path="url(#clip0)"><path d="M0 24C0 10.7452 10.7452 0 24 0C37.2548 0 48 10.7452 48 24C48 37.2548 37.2548 48 24 48C10.7452 48 0 37.2548 0 24Z" fill="#FAFAFA"/><mask id="mask0" mask-type="alpha" maskUnits="userSpaceOnUse" x="0" y="0" width="48" height="48"><path d="M0 24C0 10.7452 10.7452 0 24 0C37.2548 0 48 10.7452 48 24C48 37.2548 37.2548 48 24 48C10.7452 48 0 37.2548 0 24Z" fill="white"/></mask><g mask="url(#mask0)"><rect width="48" height="48" fill="#CD9F85"/></g><g clip-path="url(#clip1)"><mask id="mask1" mask-type="alpha" maskUnits="userSpaceOnUse" x="20" y="18" width="8" height="13"><path d="M20.59 29.34L25.17 24.75L20.59 20.16L22 18.75L28 24.75L22 30.75L20.59 29.34Z" fill="white"/></mask><g mask="url(#mask1)"><rect x="12" y="12" width="24" height="24" fill="black" fill-opacity="0.54"/></g></g></g><defs><clipPath id="clip0"><rect width="48" height="48" fill="white"/></clipPath><clipPath id="clip1"><rect width="39" height="24" fill="white" transform="translate(12 12)"/></clipPath></defs></svg>
