<svg width="48" height="48" fill="none" xmlns="http://www.w3.org/2000/svg">
<!--    <g filter="url(#filter0_d)" fill-rule="evenodd" clip-rule="evenodd">-->
        <path d="M24 40c11.046 0 20-8.954 20-20S35.046 0 24 0 4 8.954 4 20s8.954 20 20 20z" fill="#CD9F85"/>
        <path d="M26.545 15.523a3.437 3.437 0 00-1-.165c-.405 0-1.28.28-1.28.824v1.3h2.077v2.19h-2.077v6.042h-2.092v-6.042h-1.03v-2.19h1.03V16.38c0-1.663.719-3.046 2.452-3.046.593 0 1.654.033 2.232.247l-.312 1.943z" fill="#000"/>
<!--    </g>-->
<!--    <defs>-->
<!--        <filter id="filter0_d" x="0" y="0" width="48" height="48" filterUnits="userSpaceOnUse" color-interpolation-filters="sRGB">-->
<!--            <feFlood flood-opacity="0" result="BackgroundImageFix"/>-->
<!--            <feColorMatrix in="SourceAlpha" values="0 0 0 0 0 0 0 0 0 0 0 0 0 0 0 0 0 0 127 0" result="hardAlpha"/>-->
<!--            <feOffset dy="4"/>-->
<!--            <feGaussianBlur stdDeviation="2"/>-->
<!--            <feColorMatrix values="0 0 0 0 0 0 0 0 0 0 0 0 0 0 0 0 0 0 0.25 0"/>-->
<!--            <feBlend in2="BackgroundImageFix" result="effect1_dropShadow"/>-->
<!--            <feBlend in="SourceGraphic" in2="effect1_dropShadow" result="shape"/>-->
<!--        </filter>-->
<!--    </defs>-->
</svg>
