<svg width="24" height="24" viewBox="0 0 24 24" fill="none" xmlns="http://www.w3.org/2000/svg">
<mask id="mask0" mask-type="alpha" maskUnits="userSpaceOnUse" x="2" y="2" width="21" height="20">
<path fill-rule="evenodd" clip-rule="evenodd" d="M8 15L9.1 13H16.55C17.3 13 17.96 12.59 18.3 11.97L22.7 4H6.21L5.27 2H2V4H4L7.6 11.59L4.62 17H20V15H8ZM18 18C16.9 18 16.01 18.9 16.01 20C16.01 21.1 16.9 22 18 22C19.1 22 20 21.1 20 20C20 18.9 19.1 18 18 18ZM6.01 20C6.01 18.9 6.9 18 8 18C9.1 18 10 18.9 10 20C10 21.1 9.1 22 8 22C6.9 22 6.01 21.1 6.01 20Z" fill="white"/>
</mask>
<g mask="url(#mask0)">
<rect width="24" height="24" fill="black" fill-opacity="0.87"/>
</g>
</svg>
