<svg width="40" height="40" fill="none" xmlns="http://www.w3.org/2000/svg"><path fill-rule="evenodd" clip-rule="evenodd" d="M40 20c0 11.046-8.954 20-20 20S0 31.046 0 20 8.954 0 20 0s20 8.954 20 20z" fill="#FAFAFA"/><path fill-rule="evenodd" clip-rule="evenodd" d="M24.005 25.714v-4.787c0-.908-.248-1.878-1.341-1.878-.62 0-1.156.434-1.362 1.011-.083.227-.083.454-.083.681v4.973h-2.641c0-2.889.02-5.757-.062-8.646h2.29l.124 1.218h.041c.558-.908 1.59-1.404 2.642-1.404 2.187 0 3.054 1.755 3.054 3.735v5.097h-2.662zm-9.657 0v-8.646h2.64v8.646h-2.64zm1.34-12.38c.785 0 1.383.536 1.383 1.34 0 .826-.619 1.342-1.423 1.342-.784 0-1.362-.557-1.362-1.341 0-.805.619-1.342 1.403-1.342z" fill="#000" fill-opacity=".38"/></svg>