<svg width="40" height="40" fill="none" xmlns="http://www.w3.org/2000/svg">
    <path fill-rule="evenodd" clip-rule="evenodd" d="M20 40c11.046 0 20-8.954 20-20S31.046 0 20 0 0 8.954 0 20s8.954 20 20 20z" fill="#FAFAFA"/>
    <path fill-rule="evenodd" clip-rule="evenodd" d="M23.18 17.53c-.488-.478-1.073-.67-1.658-.574.585-.096.878-.287.975-.383 0-.095 0-.191-.097-.191-.293 0-.585.096-.78.191.292-.191.39-.287.39-.383-.293 0-.585.192-.975.48.097-.192.195-.288.097-.384a.755.755 0 00-.39.383c-.292.287-.487.479-.585.766-.39.67-.682 1.244-.877 1.914h-.097a2.287 2.287 0 00-.878-.765c-.39-.288-.877-.48-1.462-.766-.585-.287-1.17-.575-1.852-.766 0 .67.292 1.244.975 1.627-.195 0-.488 0-.683.096 0 .574.488 1.053 1.365 1.244-.293 0-.585.096-.877.288.292.574.78.765 1.56.765-.098.096-.293.192-.293.192-.098.095-.195.287-.098.478.195.287.39.383.878.383-.683.67-1.56 1.053-2.535.957-.585 0-1.267-.287-1.95-.861.683.957 1.658 1.723 2.827 2.201 1.365.383 2.73.48 3.997.096a6.965 6.965 0 003.315-2.201c.39-.575.682-1.149.78-1.723.682 0 1.17-.192 1.462-.575-.195.096-.682.096-1.364-.095.682-.096 1.17-.288 1.267-.67a1.933 1.933 0 01-1.463 0 2.615 2.615 0 00-.974-1.723z" fill="#000" fill-opacity=".38"/>
</svg>
