<svg width="48" height="48" viewBox="0 0 48 48" fill="none" xmlns="http://www.w3.org/2000/svg">
<path fill-rule="evenodd" clip-rule="evenodd" d="M7.09268 30.3931C3.71278 21.7908 11.0619 12.8778 12.5334 11.3938C14.0049 9.90969 16.5823 7.68575 22.873 7.72238C29.1636 7.759 34.4655 9.29122 38.7279 14.3272C42.9904 19.3631 40.755 25.7492 36.3344 32.056C31.9138 38.3627 27.8752 40.9625 24.7335 42.6306C21.5917 44.2986 18.4849 44.219 16.0447 42.7594C13.6046 41.2998 10.4726 38.9954 7.09268 30.3931Z" fill="#007AFF"/>
<path fill-rule="evenodd" clip-rule="evenodd" d="M3.01959 22.8807C3.17267 14.1106 5.95522 8.67458 9.34668 5.80954C12.7381 2.94451 18.8492 3.50498 25.0951 7.2693C31.341 11.0336 36.142 18.3414 37.5246 24.214C38.9072 30.0866 34.0119 34.022 27.2737 37.1942C20.5354 40.3663 15.6976 41.0129 12.3572 40.9546C9.01674 40.8963 7.13305 39.3865 5.68669 37.168C4.24032 34.9496 2.8665 31.6507 3.01959 22.8807Z" fill="#A63090"/>
<path fill-rule="evenodd" clip-rule="evenodd" d="M18.2031 39.3916C10.4384 37.7411 6.37225 36.1897 4.41282 32.6813C2.4534 29.1728 3.57129 23.9135 7.99435 19.0132C12.4174 14.1129 19.892 9.17416 25.3479 8.95964C30.8039 8.74512 33.3459 14.4644 35.0001 21C36.6542 27.5356 36.5015 31.2566 35.8727 34.2149C35.2439 37.1733 33.1371 39.1303 30.9165 40.0326C28.6958 40.9348 25.9678 41.042 18.2031 39.3916Z" fill="#EA435E"/>
<path fill-rule="evenodd" clip-rule="evenodd" d="M6.05316 23.2348C6.05316 14.445 6.80001 9.68392 10.1608 6.754C13.5217 3.82408 19.4965 3.82408 25.8447 7.48648C32.193 11.1489 39.2881 18.1074 40.7818 23.9673C42.2755 29.8271 37.4209 33.8558 30.6993 37.1519C23.9776 40.4481 19.1231 41.1806 15.7622 41.1806C12.4014 41.1806 9.78742 39.3494 8.29372 37.1519C6.80001 34.9545 6.05316 32.0246 6.05316 23.2348Z" fill="#7721FF"/>
<path fill-rule="evenodd" clip-rule="evenodd" d="M35.0987 16.1974C35.7055 16.1974 36.1974 15.7055 36.1974 15.0987C36.1974 14.4919 35.7055 14 35.0987 14C34.4919 14 34 14.4919 34 15.0987C34 15.7055 34.4919 16.1974 35.0987 16.1974Z" fill="#A63090"/>
<path fill-rule="evenodd" clip-rule="evenodd" d="M12.3205 19.5724C12.9273 19.5724 13.4192 19.0805 13.4192 18.4737C13.4192 17.8669 12.9273 17.375 12.3205 17.375C11.7137 17.375 11.2218 17.8669 11.2218 18.4737C11.2218 19.0805 11.7137 19.5724 12.3205 19.5724Z" fill="#EA435E"/>
<path fill-rule="evenodd" clip-rule="evenodd" d="M11.9543 37.5182C12.5611 37.5182 13.053 37.0263 13.053 36.4194C13.053 35.8126 12.5611 35.3207 11.9543 35.3207C11.3475 35.3207 10.8556 35.8126 10.8556 36.4194C10.8556 37.0263 11.3475 37.5182 11.9543 37.5182Z" fill="#007AFF"/>
<path fill-rule="evenodd" clip-rule="evenodd" d="M32.0975 28.7284C32.5021 28.7284 32.83 28.4005 32.83 27.9959C32.83 27.5914 32.5021 27.2634 32.0975 27.2634C31.693 27.2634 31.3651 27.5914 31.3651 27.9959C31.3651 28.4005 31.693 28.7284 32.0975 28.7284Z" fill="#EA435E"/>
<path fill-rule="evenodd" clip-rule="evenodd" d="M21.1103 8.5852C21.5148 8.5852 21.8428 8.25726 21.8428 7.85272C21.8428 7.44818 21.5148 7.12024 21.1103 7.12024C20.7058 7.12024 20.3778 7.44818 20.3778 7.85272C20.3778 8.25726 20.7058 8.5852 21.1103 8.5852Z" fill="#A63090"/>
<path d="M20.1528 13C19.7281 13 19.3837 13.3406 19.3837 13.7607C19.3837 17.6073 14 20.6065 14 25.9311C14 29.9761 18.4327 32.5913 19.9936 32.7606C20.046 32.7715 20.0993 32.777 20.1528 32.777C20.5776 32.777 20.9219 32.4364 20.9219 32.0163C20.9218 31.7875 20.8175 31.5709 20.638 31.4265C19.9381 30.8637 18.6146 29.2351 18.6146 27.748C18.6146 25.3071 20.9219 24.4098 20.9219 24.4098C19.606 28.0913 23.9179 28.5362 24.7855 32.1812C24.865 32.5288 25.1765 32.7764 25.5366 32.777C25.6985 32.7766 25.8562 32.7256 25.9872 32.6314C26.0011 32.6214 26.0146 32.611 26.0278 32.6002C26.1529 32.5198 29.3821 30.4075 29.3821 25.9311C29.3821 24.1035 28.4579 20.9644 27.7928 19.574C27.7922 19.5728 27.7918 19.5707 27.7913 19.5695C27.7908 19.5685 27.7903 19.5676 27.7898 19.5666C27.6739 19.2762 27.3904 19.0854 27.0748 19.0852C26.7042 19.0856 26.3865 19.3473 26.3192 19.7077C26.3173 19.719 25.964 21.2706 24.7675 22.1278C24.7675 18.5439 22.1512 14.842 20.7717 13.3105C20.751 13.2828 20.7284 13.2565 20.7041 13.2318C20.5596 13.084 20.3607 13.0004 20.1528 13Z" fill="white"/>
</svg>
