<svg xmlns="http://www.w3.org/2000/svg" width="20" height="20"><path fill="#888" d="M10 1.833c2.667 0 3 0 4 .083a5.411 5.411 0 011.833.333A2.825 2.825 0 0117 3a2.825 2.825 0 01.75 1.167A4.162 4.162 0 0118.083 6c.083 1.083.083 1.333.083 4s0 3-.083 4a5.411 5.411 0 01-.333 1.833 3.264 3.264 0 01-1.917 1.917 4.162 4.162 0 01-1.833.333c-1.083.083-1.333.083-4 .083s-3 0-4-.083a5.411 5.411 0 01-1.833-.333A2.825 2.825 0 013 17a2.825 2.825 0 01-.75-1.167A4.162 4.162 0 011.917 14c-.083-1.083-.083-1.333-.083-4s0-3 .083-4a6.942 6.942 0 01.25-1.917 9.155 9.155 0 01.75-1.167 2.825 2.825 0 011.167-.75A10.361 10.361 0 016 1.833h4M10 0C7.25 0 6.917 0 5.917.083a6.774 6.774 0 00-2.5.417A5.362 5.362 0 00.5 3.417a6.774 6.774 0 00-.417 2.5C0 7 0 7.333 0 10c0 2.75 0 3.083.083 4.083a8.14 8.14 0 00.5 2.417 4.056 4.056 0 001.167 1.75 4.61 4.61 0 001.75 1.167 8.14 8.14 0 002.417.5C7 20 7.333 20 10 20c2.75 0 3.083 0 4.083-.083a8.14 8.14 0 002.417-.5 4.056 4.056 0 001.75-1.167 4.61 4.61 0 001.167-1.75 8.14 8.14 0 00.5-2.417C20 13 20 12.666 20 10c0-2.75 0-3.083-.083-4.083a8.14 8.14 0 00-.5-2.417 4.056 4.056 0 00-1.167-1.75A4.61 4.61 0 0016.5.583a8.14 8.14 0 00-2.417-.5C13.083 0 12.75 0 10 0" data-name="Контур 1"/><path fill="#888" d="M9.68 4.12a6.2 6.2 0 106.2 6.2 6.231 6.231 0 00-6.2-6.2m0 10.2a4 4 0 114-4 4.012 4.012 0 01-4 4m7.8-10.4a1.4 1.4 0 11-2.8 0 1.4 1.4 0 112.8 0" data-name="Контур 2"/></svg>