<svg xmlns="http://www.w3.org/2000/svg" width="40" height="44"><path fill="#fff" d="M19.348 43.512c-2.07-2.039-2.505-3.567-2.567-4.349a4.637 4.637 0 01-1.919-1.137 4.7 4.7 0 01-.533-.624 4.433 4.433 0 01-.78-3.341 4.339 4.339 0 013.544-3.528l.438-8.408-8.541.482a4.343 4.343 0 01-3.571 3.5 4.675 4.675 0 01-4.052-1.286 4.548 4.548 0 01-1.279-2.343 4.333 4.333 0 013.555-5.146 4.659 4.659 0 014.783 2.224l8.142-1.1L19.6 8.884a.56.56 0 01.717-.354.577.577 0 01.38.714L17.222 20.21l.947.835a.612.612 0 01.2.177l.13.116a.571.571 0 01.2.459l-.484 9.282a.55.55 0 01-.519.519 3.252 3.252 0 00-3.016 2.68 3.311 3.311 0 00.583 2.494 3.482 3.482 0 002.2 1.405 3.433 3.433 0 001.468-.039.682.682 0 01.109-.03 3.307 3.307 0 00.944-.439 3.186 3.186 0 001.372-2.123 3.4 3.4 0 00-2-3.652.56.56 0 11.452-1.024 4.548 4.548 0 012.683 4.891 4.27 4.27 0 01-1.846 2.839 4.538 4.538 0 01-.684.378 13.926 13.926 0 001.749 2.313 1.649 1.649 0 01.435 1.324 1.559 1.559 0 01-.735 1.142 1.634 1.634 0 01-.862.242 1.717 1.717 0 01-1.2-.487zm.8-.787a.521.521 0 00.632.075.475.475 0 00.226-.348.516.516 0 00-.137-.413 14.744 14.744 0 01-2.022-2.73 4.527 4.527 0 01-.883.052 6.972 6.972 0 002.184 3.364zM3.868 18.444a3.237 3.237 0 00-2.655 3.842A3.483 3.483 0 005.192 25 3.237 3.237 0 007.9 22.019a.55.55 0 01.524-.513l8.054-.454-.293-.258a.57.57 0 01-.171-.6l.175-.551L8.2 20.73a.6.6 0 01-.613-.335 3.482 3.482 0 00-3.145-2 3.439 3.439 0 00-.574.049zM17.6 37.32a2.578 2.578 0 01-1.327-.694 2.482 2.482 0 01-.724-2.185 2.426 2.426 0 012.877-1.941 2.568 2.568 0 011.622 1.036 2.451 2.451 0 01.43 1.842 2.409 2.409 0 01-2.4 1.987 2.56 2.56 0 01-.478-.045zm-.92-2.663a1.37 1.37 0 001.109 1.556 1.3 1.3 0 001.323-2.046 1.427 1.427 0 00-.159-.186 1.4 1.4 0 00-.718-.374 1.382 1.382 0 00-.259-.025 1.3 1.3 0 00-1.294 1.075zm3.12-4.947a.584.584 0 01-.324-.164.568.568 0 01-.169-.482l3.605-26.8L21.378 7.1a.562.562 0 01-.718.354.577.577 0 01-.379-.715L22.209.656l.018-.049a1.007 1.007 0 011.246-.558 1.037 1.037 0 01.739 1.157l-2.221 16.511 16.776-2.274a1.056 1.056 0 011.181.72.981.981 0 01-.56 1.229l-.05.018-18.064 5.637-.833 6.193a.554.554 0 01-.554.476.594.594 0 01-.087-.006zm2.038-10.828l-.397 2.918 16.252-5.071zM3.143 23.728a2.668 2.668 0 01-.361-.3 2.512 2.512 0 01-.7-1.292A2.39 2.39 0 014.041 19.3a2.553 2.553 0 011.875.413A2.526 2.526 0 016.98 21.3a2.374 2.374 0 01-.372 1.833 2.4 2.4 0 01-1.589 1 2.554 2.554 0 01-1.875-.413zm1.122-3.315a1.292 1.292 0 00-1.06 1.534 1.364 1.364 0 00.575.859 1.378 1.378 0 001.014.223 1.3 1.3 0 00.859-.543 1.284 1.284 0 00.2-.991 1.359 1.359 0 00-.38-.7 1.4 1.4 0 00-.978-.4 1.358 1.358 0 00-.23.018z" data-name="Shape 1"/></svg>