<svg xmlns="http://www.w3.org/2000/svg" width="24" height="19.684"><path fill="#888" d="M24 2.421a9.454 9.454 0 01-2.842.737A5.173 5.173 0 0023.369.421a10.286 10.286 0 01-3.158 1.158A5.114 5.114 0 0016.632 0a4.942 4.942 0 00-4.947 4.947 4.318 4.318 0 00.105 1.158A13.543 13.543 0 011.474.947a5 5 0 00-.632 2.526 4.817 4.817 0 002.211 4.105 3.892 3.892 0 01-2.211-.632v.105a4.872 4.872 0 004 4.842 5.284 5.284 0 01-1.263.211 2.914 2.914 0 01-.947-.105 5 5 0 004.632 3.474 9.549 9.549 0 01-6.105 2.105A3.947 3.947 0 010 17.474a14.492 14.492 0 007.579 2.211A14 14 0 0021.684 5.579v-.632A10.687 10.687 0 0024 2.421z"/></svg>